<?xml version="1.0" encoding="UTF-8" standalone="no"?>
<!-- Created with Inkscape (http://www.inkscape.org/) -->

<svg
   width="793.79474"
   height="157.63361"
   viewBox="0 0 793.79474 157.63361"
   version="1.1"
   id="svg1"
   xml:space="preserve"
   inkscape:version="1.3.2 (091e20ef0f, 2023-11-25, custom)"
   sodipodi:docname="banner.svg"
   xmlns:inkscape="http://www.inkscape.org/namespaces/inkscape"
   xmlns:sodipodi="http://sodipodi.sourceforge.net/DTD/sodipodi-0.dtd"
   xmlns="http://www.w3.org/2000/svg"
   xmlns:svg="http://www.w3.org/2000/svg"><sodipodi:namedview
     id="namedview1"
     pagecolor="#ffffff"
     bordercolor="#000000"
     borderopacity="0.25"
     inkscape:showpageshadow="2"
     inkscape:pageopacity="0.0"
     inkscape:pagecheckerboard="0"
     inkscape:deskcolor="#d1d1d1"
     inkscape:document-units="px"
     inkscape:zoom="1.614273"
     inkscape:cx="386.86145"
     inkscape:cy="91.062664"
     inkscape:window-width="2528"
     inkscape:window-height="1388"
     inkscape:window-x="0"
     inkscape:window-y="48"
     inkscape:window-maximized="1"
     inkscape:current-layer="layer1"
     showgrid="false" /><defs
     id="defs1"><rect
       x="183.02444"
       y="143.3214"
       width="705.36542"
       height="136.04741"
       id="rect4" /><rect
       x="235.54829"
       y="131.17685"
       width="569.46875"
       height="224.92937"
       id="rect3" /><rect
       x="120.1652"
       y="105.63971"
       width="361.66354"
       height="156.20694"
       id="rect2" /><rect
       x="132.28889"
       y="77.98597"
       width="320.33313"
       height="199.54863"
       id="rect1" /></defs><g
     inkscape:label="Layer 1"
     inkscape:groupmode="layer"
     id="layer1"
     transform="translate(-12.364429,-151.5545)"><text
       xml:space="preserve"
       id="text1"
       style="font-style:normal;font-variant:normal;font-weight:normal;font-stretch:normal;font-family:Etna;-inkscape-font-specification:Etna;white-space:pre;shape-inside:url(#rect1);fill:#000000" /><text
       xml:space="preserve"
       id="text2"
       style="font-style:normal;font-variant:normal;font-weight:normal;font-stretch:normal;font-size:53.3333px;font-family:Etna;-inkscape-font-specification:Etna;white-space:pre;shape-inside:url(#rect2);fill:#000000"
       transform="translate(153.74296,82.977212)" /><g
       style="fill:#0f9353;fill-opacity:1"
       id="g2"
       transform="matrix(11.303517,0,0,11.303517,10.103439,147.8249)"><g
         fill="#008000"
         id="g3"
         style="fill:#0f9353;fill-opacity:1"><path
           d="M 11.642105,3.2105264 10.663158,4 c 0.694737,0.8526316 1.073684,1.9263158 1.073684,3 0,2.6210526 -2.1157894,4.736842 -4.736842,4.736842 -0.2842105,0 -0.6,-0.03158 -0.8842105,-0.09474 l -0.2210526,1.231579 c 0.3789473,0.06316 0.7578947,0.09474 1.1052631,0.09474 3.315789,0 6,-2.684211 6,-5.9999999 0,-1.3263158 -0.473684,-2.6842105 -1.357895,-3.7578947 z"
           id="path1"
           style="fill:#0f9353;fill-opacity:1" /><path
           d="M 9.2105263,1.9789474 12.968421,2.4842106 9.8736842,5.5789474 Z M 7,1.031579 c -3.3157894,0 -5.9999999,2.6842105 -5.9999999,5.9999999 0,1.4526316 0.5052631,2.8421053 1.4526315,3.9157891 L 3.4,10.126316 C 2.6736843,9.2736842 2.2631579,8.168421 2.2631579,7.0315789 2.263158,4.4105263 4.3789474,2.2947369 7,2.2947369 c 0.2842105,0 0.6,0.031579 0.8842105,0.094737 L 8.1052631,1.1578948 C 7.7578947,1.063158 7.3789474,1.031579 7,1.031579 Z"
           id="path2"
           style="fill:#0f9353;fill-opacity:1" /><path
           d="M 4.7894737,12.08421 1.031579,11.578947 4.1263158,8.4842105 Z"
           id="path3"
           style="fill:#0f9353;fill-opacity:1" /></g></g><path
       d="M 236.11621,184.60239 221.2095,217.62648 205.15612,184.60239 H 186.4654 l 28.66675,59.0535 h 12.1547 l 27.40542,-59.0535 z m 72.92821,29.35475 c -0.11467,-16.28272 -13.41604,-29.46942 -29.69875,-29.35475 -16.28272,0.11466 -29.46942,13.41603 -29.35476,29.69875 0.11467,16.28271 13.41604,29.46942 29.69876,29.35475 12.8427,-0.11467 19.37872,-5.50402 25.57074,-15.02138 l -14.90671,-4.70134 c -0.11467,0.11466 -0.344,0.344 -0.45867,0.45866 -2.75201,2.75201 -6.42135,4.24268 -10.32003,4.35735 -3.78401,0 -7.45336,-1.49067 -10.32003,-4.24268 -1.72001,-1.72 -2.52267,-2.75201 -3.32534,-5.04535 l 43.11479,0.11467 c 0.11467,-0.80267 0,-4.81601 0,-5.61868 z m -29.58409,-14.33338 c 3.89868,0 7.56802,1.49067 10.32003,4.12801 1.37601,1.49068 2.52268,3.09601 3.21068,4.93069 h -26.94675 c 0.68801,-1.83468 1.83468,-3.44001 3.09601,-4.81602 2.75201,-2.75201 6.42135,-4.24268 10.32003,-4.24268 z m 50.33889,-6.19202 v -8.82935 h -16.05338 v 32.90942 26.14408 h 16.05338 v -26.14408 c 0,-7.56802 7.56802,-17.54405 19.95206,-17.54405 v -16.39738 c -11.92537,0 -17.31472,2.52268 -19.95206,9.86136 z m 41.16536,-29.46941 H 354.9112 v 79.69356 h 16.05338 z m 63.75496,49.99481 c -0.11467,-16.28272 -13.41604,-29.46942 -29.69876,-29.35475 -16.28271,0.11466 -29.46942,13.41603 -29.35475,29.69875 0.11467,16.28271 13.41604,29.46942 29.69875,29.35475 12.84271,-0.11467 19.37873,-5.50402 25.57074,-15.02138 l -14.90671,-4.70134 c -0.11466,0.11466 -0.344,0.344 -0.45866,0.45866 -2.75201,2.75201 -6.42136,4.24268 -10.32003,4.35735 -3.78401,0 -7.45336,-1.49067 -10.32003,-4.24268 -1.72001,-1.72 -2.52268,-2.75201 -3.32535,-5.04535 l 43.1148,0.11467 c 0.11466,-0.80267 0,-4.81601 0,-5.61868 z m -29.58409,-14.33338 c 3.89868,0 7.56802,1.49067 10.32003,4.12801 1.376,1.49068 2.52267,3.09601 3.21068,4.93069 h -26.94675 c 0.688,-1.83468 1.83467,-3.44001 3.09601,-4.81602 2.75201,-2.75201 6.42135,-4.24268 10.32003,-4.24268 z m 76.71229,-15.25071 v 6.53602 c -3.55468,-4.47201 -9.63203,-6.53602 -15.25071,-6.53602 -16.28271,0.11467 -29.46942,13.41604 -29.35475,29.69875 0.11467,16.28272 13.41604,29.46942 29.69875,29.35476 5.38935,0 11.35203,-1.83468 14.90671,-6.42136 v 6.65069 h 16.05338 v -59.28284 z m -4.81601,39.78945 c -2.63734,2.75201 -6.30669,4.24268 -10.20537,4.35735 -3.89867,0 -7.56802,-1.49067 -10.32003,-4.24268 -2.752,-2.75201 -4.35734,-6.42135 -4.35734,-10.32003 0,-3.89868 1.49067,-7.56802 4.24268,-10.32003 2.75201,-2.75201 6.42135,-4.24268 10.32003,-4.24268 3.78401,-0.11467 7.45335,1.376 10.20536,4.12801 2.86668,2.75201 4.35735,6.42135 4.35735,10.32003 0,3.89868 -1.49067,7.56802 -4.24268,10.32003 z m 60.42947,-44.4908 h 5.50402 v -15.93871 h -11.81071 c -8.94402,0 -16.05338,7.10936 -16.05338,15.93871 v 12.72804 H 504.7811 v 15.93871 h 10.32003 v 7.45336 27.86408 h 16.05338 v -27.86408 -7.33869 h 11.81071 v -16.05338 h -11.81071 v -6.30668 c 0,-3.55468 2.86668,-6.42136 6.30669,-6.42136 z m 12.38399,38.41345 h 39.33078 v -16.05338 h -39.33078 z m 70.06152,25.57074 c 4.81602,0 8.82936,-0.57333 12.26937,-1.72 3.32534,-1.14667 6.07735,-2.86668 8.02669,-5.16002 3.89868,-4.47201 3.89868,-9.28803 3.89868,-11.1227 0,-4.01334 -1.376,-7.68269 -4.01335,-10.7787 -3.89867,-4.58668 -10.43469,-7.45335 -19.14938,-8.37069 -3.66935,-0.45867 -6.42136,-1.14667 -8.14136,-2.17867 -1.60534,-0.91734 -2.29334,-1.94934 -2.29334,-3.32534 0,-2.75201 4.81601,-4.01335 9.63203,-4.01335 4.24268,0 7.45335,1.26134 9.05869,3.44001 0.91734,1.26134 1.032,3.09601 1.032,3.66935 0,0 0,0 0,0.11466 v 0.91734 h 13.87471 v -1.032 c 0,-0.68801 0,-6.30669 -3.21068,-11.23737 -2.86667,-4.47201 -8.82936,-9.7467 -20.75472,-9.7467 -9.0587,0 -15.70938,2.40801 -19.83739,7.10936 -1.94934,2.17867 -4.12802,5.96268 -4.12802,11.4667 0,4.12801 1.37601,7.68269 4.12802,10.7787 1.94933,2.064 4.47201,3.78401 7.56802,5.04534 3.09601,1.37601 6.99468,2.29334 11.4667,2.75201 3.89868,0.45867 10.54936,1.72001 10.54936,5.38935 0,0.688 -0.22933,1.83467 -2.064,2.75201 -1.72001,0.91734 -4.35735,1.26134 -7.91203,1.26134 -4.24268,0 -7.22402,-1.03201 -8.60002,-3.32535 -1.14667,-1.83467 -1.26134,-4.70134 -1.26134,-4.70134 v -0.91734 h -1.032 l -12.84271,-0.22933 v 1.14667 c 0,0 0,0 0,0.11466 -0.344,6.07735 1.83468,11.4667 5.96269,15.36538 2.52267,2.29334 4.81601,3.78401 7.33869,4.70135 3.096,1.26134 6.53601,1.83467 10.43469,1.83467 z m 80.61097,-59.16817 h -17.77339 l -9.51736,25.80007 -10.66403,-25.80007 h -17.65872 l 20.18139,47.9308 -3.21067,8.82936 c -1.60534,3.21068 -4.24268,5.73335 -7.56802,7.22402 -2.17868,1.03201 -4.70135,1.60534 -7.10936,1.49068 v 16.05338 c 12.84271,0.22933 24.99741,-7.33869 30.04276,-19.72273 z m 33.02415,0.344 c -5.27468,0.45867 -9.63203,1.49067 -14.44804,7.22402 v -7.68269 h -16.05338 v 59.28284 h 16.05338 v -29.12542 h 0.11467 c 0,0 0,-0.11466 0,-0.11466 -0.11467,-3.89868 1.376,-7.56803 4.12801,-10.32003 2.75201,-2.75201 6.42135,-4.24268 10.32003,-4.35735 3.89868,0 7.56802,1.49067 10.32003,4.24268 2.75201,2.75201 4.24268,6.42135 4.24268,10.32003 0,0 0,0.11467 0,0.22933 h 0.11467 v 25.45608 3.66934 h 14.90671 v -28.09341 c 0,-0.45867 0,-0.91734 0,-1.37601 0,-20.29606 -13.53071,-30.73075 -29.69876,-29.35475 z m 72.01089,41.05079 c -2.52268,1.83467 -5.50402,2.86667 -8.71469,2.86667 -3.89868,-0.11467 -7.56803,-1.60534 -10.32003,-4.35735 -2.75201,-2.752 -4.24268,-6.42135 -4.12802,-10.32003 0,-3.89867 1.49068,-7.56802 4.24268,-10.32003 2.75201,-2.63734 6.42136,-4.12801 10.32003,-4.12801 3.21068,0 6.19202,1.03201 8.7147,2.86668 l 10.66403,-10.54937 c -5.16002,-4.47201 -11.92537,-7.22402 -19.26406,-7.33868 -16.28271,-0.11467 -29.58409,13.07203 -29.69875,29.35475 -0.11467,16.28271 13.07204,29.58408 29.35475,29.69875 7.45335,0 14.21871,-2.63734 19.49339,-7.10935 z"
       id="text3"
       style="font-size:114.667px;font-family:Etna;-inkscape-font-specification:Etna;white-space:pre;fill:#a6a6a6"
       aria-label="verleaf-sync"
       transform="translate(-17.600864,36.134868)" /><text
       xml:space="preserve"
       style="font-style:normal;font-variant:normal;font-weight:normal;font-stretch:normal;font-size:114.667px;font-family:Etna;-inkscape-font-specification:Etna;fill:#a6a6a6;fill-opacity:1;fill-rule:nonzero"
       x="547.49286"
       y="88.636185"
       id="text5"><tspan
         sodipodi:role="line"
         id="tspan5"
         x="547.49286"
         y="88.636185" /></text><rect
       style="fill:#0f9353;fill-opacity:0"
       id="rect5"
       width="780.29492"
       height="154.70245"
       x="17.100677"
       y="148.10953" /><rect
       style="fill:#0f9353;fill-opacity:0"
       id="rect6"
       width="792.62915"
       height="164.82445"
       x="14.56724"
       y="147.04602"
       ry="0" /><rect
       style="fill:#0f9353;fill-opacity:0"
       id="rect7"
       width="795.2561"
       height="159.51732"
       x="12.484645"
       y="150.76259" /></g></svg>
