<?xml version="1.0" encoding="UTF-8" standalone="no"?>
<!-- Created with Inkscape (http://www.inkscape.org/) -->

<svg
   width="820"
   height="462"
   viewBox="0 0 820 462"
   version="1.1"
   id="svg1"
   xml:space="preserve"
   inkscape:version="1.3.2 (091e20ef0f, 2023-11-25, custom)"
   sodipodi:docname="banner.svg"
   xmlns:inkscape="http://www.inkscape.org/namespaces/inkscape"
   xmlns:sodipodi="http://sodipodi.sourceforge.net/DTD/sodipodi-0.dtd"
   xmlns="http://www.w3.org/2000/svg"
   xmlns:svg="http://www.w3.org/2000/svg"><sodipodi:namedview
     id="namedview1"
     pagecolor="#ffffff"
     bordercolor="#000000"
     borderopacity="0.25"
     inkscape:showpageshadow="2"
     inkscape:pageopacity="0.0"
     inkscape:pagecheckerboard="0"
     inkscape:deskcolor="#d1d1d1"
     inkscape:document-units="px"
     inkscape:zoom="0.80713652"
     inkscape:cx="426.19804"
     inkscape:cy="92.921083"
     inkscape:window-width="1259"
     inkscape:window-height="1392"
     inkscape:window-x="1287"
     inkscape:window-y="34"
     inkscape:window-maximized="1"
     inkscape:current-layer="layer1" /><defs
     id="defs1"><rect
       x="183.02444"
       y="143.32139"
       width="705.36539"
       height="136.04741"
       id="rect4" /><rect
       x="235.54829"
       y="131.17685"
       width="569.46877"
       height="224.92937"
       id="rect3" /><rect
       x="120.1652"
       y="105.63971"
       width="361.66353"
       height="156.20694"
       id="rect2" /><rect
       x="132.28889"
       y="77.985966"
       width="320.33314"
       height="199.54863"
       id="rect1" /></defs><g
     inkscape:label="Layer 1"
     inkscape:groupmode="layer"
     id="layer1"><text
       xml:space="preserve"
       id="text1"
       style="fill:#000000;white-space:pre;shape-inside:url(#rect1);-inkscape-font-specification:Etna;font-family:Etna;font-weight:normal;font-style:normal;font-stretch:normal;font-variant:normal" /><text
       xml:space="preserve"
       id="text2"
       style="font-style:normal;font-variant:normal;font-weight:normal;font-stretch:normal;font-size:53.3333px;font-family:Etna;-inkscape-font-specification:Etna;white-space:pre;shape-inside:url(#rect2);fill:#000000"
       transform="translate(153.74296,82.977212)" /><g
       style="fill:#0f9353;fill-opacity:1"
       id="g2"
       transform="matrix(11.303517,0,0,11.303517,10.103439,147.8249)"><g
         fill="#008000"
         id="g3"
         style="fill:#0f9353;fill-opacity:1"><path
           d="M 11.642105,3.2105264 10.663158,4 c 0.694737,0.8526316 1.073684,1.9263158 1.073684,3 0,2.6210526 -2.1157894,4.736842 -4.736842,4.736842 -0.2842105,0 -0.6,-0.03158 -0.8842105,-0.09474 l -0.2210526,1.231579 c 0.3789473,0.06316 0.7578947,0.09474 1.1052631,0.09474 3.315789,0 6,-2.684211 6,-5.9999999 0,-1.3263158 -0.473684,-2.6842105 -1.357895,-3.7578947 z"
           id="path1"
           style="fill:#0f9353;fill-opacity:1" /><path
           d="M 9.2105263,1.9789474 12.968421,2.4842106 9.8736842,5.5789474 Z M 7,1.031579 c -3.3157894,0 -5.9999999,2.6842105 -5.9999999,5.9999999 0,1.4526316 0.5052631,2.8421053 1.4526315,3.9157891 L 3.4,10.126316 C 2.6736843,9.2736842 2.2631579,8.168421 2.2631579,7.0315789 2.263158,4.4105263 4.3789474,2.2947369 7,2.2947369 c 0.2842105,0 0.6,0.031579 0.8842105,0.094737 L 8.1052631,1.1578948 C 7.7578947,1.063158 7.3789474,1.031579 7,1.031579 Z"
           id="path2"
           style="fill:#0f9353;fill-opacity:1" /><path
           d="M 4.7894737,12.08421 1.031579,11.578947 4.1263158,8.4842105 Z"
           id="path3"
           style="fill:#0f9353;fill-opacity:1" /></g></g><text
       xml:space="preserve"
       id="text3"
       style="font-style:normal;font-variant:normal;font-weight:normal;font-stretch:normal;font-size:114.667px;font-family:Etna;-inkscape-font-specification:Etna;white-space:pre;shape-inside:url(#rect4);fill:#a6a6a6;fill-opacity:1;fill-rule:nonzero"
       transform="translate(-17.600864,36.134868)"><tspan
         x="183.02539"
         y="243.65589"
         id="tspan1">verleaf-sync</tspan></text><text
       xml:space="preserve"
       style="font-style:normal;font-variant:normal;font-weight:normal;font-stretch:normal;font-size:114.667px;font-family:Etna;-inkscape-font-specification:Etna;fill:#a6a6a6;fill-opacity:1;fill-rule:nonzero"
       x="547.49286"
       y="88.636185"
       id="text5"><tspan
         sodipodi:role="line"
         id="tspan5"></tspan></text></g></svg>
